<svg id="visual" viewBox="0 0 900 600" width="900" height="600" xmlns="http://www.w3.org/2000/svg" xmlns:xlink="http://www.w3.org/1999/xlink" version="1.1"><rect x="0" y="0" width="900" height="600" fill="#001220"></rect><path d="M0 426L21.5 423.5C43 421 86 416 128.8 404.2C171.7 392.3 214.3 373.7 257.2 367.3C300 361 343 367 385.8 377.5C428.7 388 471.3 403 514.2 403.3C557 403.7 600 389.3 642.8 379.8C685.7 370.3 728.3 365.7 771.2 368.8C814 372 857 383 878.5 388.5L900 394L900 601L878.5 601C857 601 814 601 771.2 601C728.3 601 685.7 601 642.8 601C600 601 557 601 514.2 601C471.3 601 428.7 601 385.8 601C343 601 300 601 257.2 601C214.3 601 171.7 601 128.8 601C86 601 43 601 21.5 601L0 601Z" fill="#fa7268"></path><path d="M0 415L21.5 415.3C43 415.7 86 416.3 128.8 414.8C171.7 413.3 214.3 409.7 257.2 411.5C300 413.3 343 420.7 385.8 428C428.7 435.3 471.3 442.7 514.2 444.2C557 445.7 600 441.3 642.8 439.5C685.7 437.7 728.3 438.3 771.2 444.7C814 451 857 463 878.5 469L900 475L900 601L878.5 601C857 601 814 601 771.2 601C728.3 601 685.7 601 642.8 601C600 601 557 601 514.2 601C471.3 601 428.7 601 385.8 601C343 601 300 601 257.2 601C214.3 601 171.7 601 128.8 601C86 601 43 601 21.5 601L0 601Z" fill="#ef5f67"></path><path d="M0 461L21.5 459C43 457 86 453 128.8 454.8C171.7 456.7 214.3 464.3 257.2 467.3C300 470.3 343 468.7 385.8 464.3C428.7 460 471.3 453 514.2 451.5C557 450 600 454 642.8 464.3C685.7 474.7 728.3 491.3 771.2 495.3C814 499.3 857 490.7 878.5 486.3L900 482L900 601L878.5 601C857 601 814 601 771.2 601C728.3 601 685.7 601 642.8 601C600 601 557 601 514.2 601C471.3 601 428.7 601 385.8 601C343 601 300 601 257.2 601C214.3 601 171.7 601 128.8 601C86 601 43 601 21.5 601L0 601Z" fill="#e34c67"></path><path d="M0 482L21.5 484.7C43 487.3 86 492.7 128.8 500.8C171.7 509 214.3 520 257.2 518.2C300 516.3 343 501.7 385.8 493.3C428.7 485 471.3 483 514.2 486.3C557 489.7 600 498.3 642.8 507.7C685.7 517 728.3 527 771.2 532.8C814 538.7 857 540.3 878.5 541.2L900 542L900 601L878.5 601C857 601 814 601 771.2 601C728.3 601 685.7 601 642.8 601C600 601 557 601 514.2 601C471.3 601 428.7 601 385.8 601C343 601 300 601 257.2 601C214.3 601 171.7 601 128.8 601C86 601 43 601 21.5 601L0 601Z" fill="#d53867"></path><path d="M0 530L21.5 533.2C43 536.3 86 542.7 128.8 549C171.7 555.3 214.3 561.7 257.2 563.2C300 564.7 343 561.3 385.8 557.3C428.7 553.3 471.3 548.7 514.2 547.3C557 546 600 548 642.8 551.5C685.7 555 728.3 560 771.2 563.7C814 567.3 857 569.7 878.5 570.8L900 572L900 601L878.5 601C857 601 814 601 771.2 601C728.3 601 685.7 601 642.8 601C600 601 557 601 514.2 601C471.3 601 428.7 601 385.8 601C343 601 300 601 257.2 601C214.3 601 171.7 601 128.8 601C86 601 43 601 21.5 601L0 601Z" fill="#c62368"></path></svg>